<?xml version="1.0" encoding="utf-8"?>
<!-- Generator: Adobe Illustrator 19.0.1, SVG Export Plug-In . SVG Version: 6.00 Build 0)  -->
<svg version="1.1" id="Layer_1" xmlns="http://www.w3.org/2000/svg" xmlns:xlink="http://www.w3.org/1999/xlink" x="0px" y="0px"
	 viewBox="-254 325 103 144" style="enable-background:new -254 325 103 144;" xml:space="preserve">
<style type="text/css">
	.st0{fill:#404040;}
</style>
<g>
	<g>
		<path class="st0" d="M-212,355.4c0.1,0,0.3,0,0.4,0h0.2h0.2c0.2,0,0.4,0,0.5,0.1l22.2,5.9l0.3,0.1h0.4l12.2,3.9
			c0.8,0,1.6,0.5,2,1.2l10.8,17.2c0.3,0.5,0.3,1.1,0.1,1.7s-0.6,1-1.1,1.3c-0.3,0.2-0.7,0.2-1,0.2c-0.8,0-1.6-0.5-2-1.2l-10.2-15.6
			l-10.9-3.3h-2.1l-0.5,2l-6.7,35.7v0.1v0.1l-0.3,0.8l0.2,0.8l6,22.6l0.1,0.2l0.1,0.2l13,30.1c0.5,1.2,0.5,2.6,0.1,3.8
			c-0.5,1.2-1.4,2.2-2.6,2.7c-0.6,0.3-1.3,0.4-2,0.4c-2,0-3.8-1.2-4.6-3l-13.3-30.6c-0.1-0.2-0.2-0.5-0.2-0.7l-7.1-26.7l-0.4-1.5
			l-1.5-0.4l-1-0.3l-3.3-1v3.5l0.1,24.7c0,0.4,0,0.8-0.1,1.2l-7.7,30.6c-0.6,2.2-2.5,3.8-4.8,3.8c-0.4,0-0.8-0.1-1.2-0.1
			c-2.7-0.7-4.3-3.4-3.6-6l2.4-9.5l2.2-8.7l2.9-11.5l0.1-0.3v-0.3l-0.3-31.5c0-0.7,0.1-1.4,0.4-2l0.1-0.2l0.1-0.2l8.3-31.5l1.1-4
			l-4.1,0.7l-13.7,2.1l-1.9,0.3l-0.3,1.8l-4,20.9c-0.2,1-1.1,1.8-2.2,1.8c-0.1,0-0.3,0-0.4,0c-1.2-0.2-2-1.4-1.8-2.6l4.6-24.2
			c0.2-0.9,0.9-1.6,1.8-1.8l23.5-3.8C-212.2,355.4-212.1,355.4-212,355.4 M-212,352.7c-0.2,0-0.5,0-0.8,0.1l-23.5,3.8
			c-2,0.3-3.7,1.9-4,3.9l-4.7,24.1c-0.5,2.7,1.2,5.2,3.9,5.7c0.3,0.1,0.6,0.1,0.9,0.1c2.3,0,4.4-1.6,4.8-4l4-20.8l13.7-2.2
			l-8.3,31.5c-0.4,1-0.7,2-0.7,3.2l0.2,31.4l-2.9,11.5l-2.2,8.7l-2.4,9.5c-1,4.1,1.5,8.3,5.6,9.3c0.6,0.2,1.2,0.2,1.9,0.2
			c3.4,0,6.6-2.3,7.4-5.8l7.7-30.6c0.2-0.6,0.2-1.3,0.2-1.9l-0.1-24.7l1,0.3l7.1,26.7c0.1,0.4,0.2,0.7,0.4,1.1l13.3,30.6
			c1.3,2.9,4.1,4.6,7,4.6c1,0,2-0.2,3-0.6c3.9-1.7,5.7-6.2,4-10.1l-13-30.1l-6-22.6c0-0.1,0.1-0.2,0.1-0.3l6.7-35.7l9.2,2.9
			l9.4,14.5c0.9,1.7,2.6,2.7,4.4,2.7c0.8,0,1.5-0.2,2.2-0.5c2.4-1.2,3.4-4.2,2.1-6.6l-10.8-17.2c-0.8-1.6-2.5-2.7-4.4-2.7l0,0
			l-12.2-3.9l-22.2-5.9c-0.4-0.1-0.8-0.1-1.2-0.2C-211.5,352.7-211.7,352.7-212,352.7L-212,352.7z"/>
	</g>
	<g>
		<path class="st0" d="M-193.9,327.7c0.4,0,0.8,0,1.3,0.1c6,0.7,10.4,6.2,9.7,12.2c-0.6,5.6-5.4,9.8-11,9.8c-0.4,0-0.8,0-1.3-0.1
			c-2.9-0.3-5.6-1.8-7.4-4.1c-1.8-2.3-2.7-5.2-2.3-8.1C-204.3,331.9-199.6,327.7-193.9,327.7 M-193.9,325c-6.9,0-12.9,5.2-13.7,12.2
			c-0.9,7.6,4.6,14.4,12.2,15.2c0.5,0.1,1,0.1,1.6,0.1c6.9,0,12.9-5.2,13.7-12.2c0.9-7.6-4.6-14.4-12.2-15.2
			C-192.9,325-193.4,325-193.9,325L-193.9,325z"/>
	</g>
	<path class="st0" d="M-246.6,383.1c0.3-0.1,0.4-0.5,0.3-0.8c-0.1-0.3-0.5-0.4-0.8-0.3c-1.3,0.6-2.2,1.5-2.5,2.6
		c-0.6,1.7,0.3,3.3,0.3,3.4c0.1,0.2,0.3,0.3,0.5,0.3c0.1,0,0.2,0,0.3-0.1c0.3-0.2,0.4-0.5,0.3-0.8c0,0-0.6-1.2-0.2-2.4
		C-248.2,384.2-247.6,383.5-246.6,383.1z"/>
	<path class="st0" d="M-248.1,380.8c0.3-0.1,0.5-0.5,0.3-0.8c-0.1-0.3-0.5-0.5-0.8-0.3c-2,0.9-3.3,2.1-3.9,3.7
		c-0.9,2.5,0.2,4.8,0.2,4.9c0.1,0.2,0.3,0.4,0.6,0.4c0.1,0,0.2,0,0.3-0.1c0.3-0.1,0.4-0.5,0.3-0.8c0,0-0.9-2-0.2-4
		C-250.8,382.5-249.7,381.5-248.1,380.8z"/>
	<path class="st0" d="M-234.2,390.9c-0.3,0.1-0.5,0.4-0.4,0.8c0.1,0.3,0.3,0.4,0.6,0.4c0.1,0,0.1,0,0.2,0c1.4-0.4,2.4-1.2,2.9-2.2
		c0.8-1.6,0.2-3.3,0.2-3.4c-0.1-0.3-0.5-0.5-0.8-0.4s-0.5,0.5-0.4,0.8c0,0,0.4,1.3-0.1,2.4C-232.4,390.1-233.1,390.6-234.2,390.9z"
		/>
	<path class="st0" d="M-233.1,393.4c-0.3,0.1-0.5,0.4-0.4,0.8c0.1,0.3,0.3,0.5,0.6,0.5c0.1,0,0.1,0,0.2,0c2.1-0.6,3.6-1.6,4.4-3.1
		c1.3-2.3,0.5-4.8,0.5-4.9c-0.1-0.3-0.4-0.5-0.8-0.4c-0.3,0.1-0.5,0.4-0.4,0.8c0,0,0.6,2.1-0.4,3.9
		C-230.1,392.1-231.3,392.9-233.1,393.4z"/>
	<path class="st0" d="M-157.3,387.4c0.1,0.1,0.3,0.1,0.4,0.1c0.2,0,0.3-0.1,0.5-0.2c0.9-1.1,1.3-2.3,1.2-3.4c-0.2-1.8-1.6-2.9-1.7-3
		c-0.3-0.2-0.7-0.2-0.9,0.1s-0.2,0.7,0.1,0.9c0,0,1.1,0.9,1.2,2.1c0.1,0.8-0.2,1.7-0.9,2.5C-157.6,386.8-157.6,387.2-157.3,387.4z"
		/>
	<path class="st0" d="M-154.6,389.1c0.2,0,0.3-0.1,0.5-0.2c1.5-1.6,2.1-3.3,2-5c-0.2-2.6-2.1-4.3-2.2-4.4c-0.3-0.2-0.6-0.2-0.9,0.1
		c-0.2,0.3-0.2,0.6,0.1,0.9c0,0,1.6,1.4,1.8,3.5c0.1,1.4-0.5,2.8-1.7,4.1c-0.2,0.3-0.2,0.6,0,0.9
		C-154.9,389-154.8,389.1-154.6,389.1z"/>
	<path class="st0" d="M-173.3,389c0.3,0,0.5-0.2,0.6-0.5c0.1-0.3-0.1-0.7-0.4-0.7c0,0-1.3-0.4-1.9-1.5c-0.4-0.7-0.4-1.6-0.1-2.7
		c0.1-0.3-0.1-0.7-0.4-0.8c-0.3-0.1-0.7,0.1-0.8,0.4c-0.4,1.4-0.4,2.6,0.2,3.6c0.9,1.6,2.6,2,2.7,2.1
		C-173.4,389-173.3,389-173.3,389z"/>
	<path class="st0" d="M-178.3,382.4c-0.3-0.1-0.7,0.1-0.8,0.4c-0.7,2-0.7,3.9,0.1,5.4c1.2,2.3,3.6,3.2,3.7,3.2c0.1,0,0.1,0,0.2,0
		c0.3,0,0.5-0.2,0.6-0.4c0.1-0.3-0.1-0.7-0.4-0.8c0,0-2.1-0.7-3-2.6c-0.6-1.2-0.6-2.7,0-4.5C-177.8,382.8-177.9,382.5-178.3,382.4z"
		/>
</g>
</svg>
